<?xml version="1.0" encoding="UTF-8" standalone="no"?>
<!DOCTYPE svg PUBLIC "-//W3C//DTD SVG 1.1//EN"
 "http://www.w3.org/Graphics/SVG/1.1/DTD/svg11.dtd">
<!-- Generated by graphviz version 2.40.1 (20161225.0304)
 -->
<!-- Title: G Pages: 1 -->
<svg width="409pt" height="379pt"
 viewBox="0.00 0.00 408.58 379.00" xmlns="http://www.w3.org/2000/svg" xmlns:xlink="http://www.w3.org/1999/xlink">
<g id="graph0" class="graph" transform="scale(1 1) rotate(0) translate(4 375)">
<title>G</title>
<polygon fill="#ffffff" stroke="transparent" points="-4,4 -4,-375 404.5836,-375 404.5836,4 -4,4"/>
<!-- Vm -->
<g id="node1" class="node">
<title>Vm</title>
<ellipse fill="none" stroke="#000000" cx="27" cy="-272" rx="27" ry="18"/>
<text text-anchor="middle" x="27" y="-268.3" font-family="Times,serif" font-size="14.00" fill="#000000">Vm</text>
</g>
<!-- Builtins -->
<g id="node2" class="node">
<title>Builtins</title>
<ellipse fill="none" stroke="#000000" cx="133.5461" cy="-299" rx="38.1938" ry="18"/>
<text text-anchor="middle" x="133.5461" y="-295.3" font-family="Times,serif" font-size="14.00" fill="#000000">Builtins</text>
</g>
<!-- Vm&#45;&gt;Builtins -->
<g id="edge1" class="edge">
<title>Vm&#45;&gt;Builtins</title>
<path fill="none" stroke="#000000" d="M52.2499,-278.3986C63.418,-281.2287 76.8831,-284.6409 89.6136,-287.867"/>
<polygon fill="#000000" stroke="#000000" points="89.0544,-291.3358 99.6078,-290.3996 90.7739,-284.5503 89.0544,-291.3358"/>
</g>
<!-- Display -->
<g id="node3" class="node">
<title>Display</title>
<ellipse fill="none" stroke="#000000" cx="133.5461" cy="-245" rx="38.1938" ry="18"/>
<text text-anchor="middle" x="133.5461" y="-241.3" font-family="Times,serif" font-size="14.00" fill="#000000">Display</text>
</g>
<!-- Vm&#45;&gt;Display -->
<g id="edge2" class="edge">
<title>Vm&#45;&gt;Display</title>
<path fill="none" stroke="#000000" d="M52.2499,-265.6014C63.418,-262.7713 76.8831,-259.3591 89.6136,-256.133"/>
<polygon fill="#000000" stroke="#000000" points="90.7739,-259.4497 99.6078,-253.6004 89.0544,-252.6642 90.7739,-259.4497"/>
</g>
<!-- Vm_types -->
<g id="node12" class="node">
<title>Vm_types</title>
<ellipse fill="none" stroke="#000000" cx="261.8379" cy="-299" rx="47.3916" ry="18"/>
<text text-anchor="middle" x="261.8379" y="-295.3" font-family="Times,serif" font-size="14.00" fill="#000000">Vm_types</text>
</g>
<!-- Builtins&#45;&gt;Vm_types -->
<g id="edge15" class="edge">
<title>Builtins&#45;&gt;Vm_types</title>
<path fill="none" stroke="#000000" d="M172.0379,-299C182.1056,-299 193.1828,-299 204.017,-299"/>
<polygon fill="#000000" stroke="#000000" points="204.289,-302.5001 214.289,-299 204.289,-295.5001 204.289,-302.5001"/>
</g>
<!-- Cek_types -->
<g id="node7" class="node">
<title>Cek_types</title>
<ellipse fill="none" stroke="#000000" cx="261.8379" cy="-218" rx="48.1917" ry="18"/>
<text text-anchor="middle" x="261.8379" y="-214.3" font-family="Times,serif" font-size="14.00" fill="#000000">Cek_types</text>
</g>
<!-- Display&#45;&gt;Cek_types -->
<g id="edge10" class="edge">
<title>Display&#45;&gt;Cek_types</title>
<path fill="none" stroke="#000000" d="M168.6024,-237.6221C181.2586,-234.9585 195.8316,-231.8915 209.6391,-228.9857"/>
<polygon fill="#000000" stroke="#000000" points="210.4545,-232.3908 219.5193,-226.9063 209.0129,-225.5408 210.4545,-232.3908"/>
</g>
<!-- Display&#45;&gt;Vm_types -->
<g id="edge11" class="edge">
<title>Display&#45;&gt;Vm_types</title>
<path fill="none" stroke="#000000" d="M162.3373,-257.1187C179.5274,-264.3542 201.6438,-273.6634 220.6583,-281.6669"/>
<polygon fill="#000000" stroke="#000000" points="219.4168,-284.9416 229.9915,-285.5953 222.1325,-278.4899 219.4168,-284.9416"/>
</g>
<!-- Typing -->
<g id="node4" class="node">
<title>Typing</title>
<ellipse fill="none" stroke="#000000" cx="261.8379" cy="-126" rx="36.2938" ry="18"/>
<text text-anchor="middle" x="261.8379" y="-122.3" font-family="Times,serif" font-size="14.00" fill="#000000">Typing</text>
</g>
<!-- Stx -->
<g id="node5" class="node">
<title>Stx</title>
<ellipse fill="none" stroke="#000000" cx="373.5836" cy="-72" rx="27" ry="18"/>
<text text-anchor="middle" x="373.5836" y="-68.3" font-family="Times,serif" font-size="14.00" fill="#000000">Stx</text>
</g>
<!-- Typing&#45;&gt;Stx -->
<g id="edge3" class="edge">
<title>Typing&#45;&gt;Stx</title>
<path fill="none" stroke="#000000" d="M288.0373,-113.3394C304.3662,-105.4486 325.4585,-95.256 342.6132,-86.9661"/>
<polygon fill="#000000" stroke="#000000" points="344.2023,-90.0855 351.6833,-82.5831 341.1566,-83.7828 344.2023,-90.0855"/>
</g>
<!-- Translate -->
<g id="node6" class="node">
<title>Translate</title>
<ellipse fill="none" stroke="#000000" cx="133.5461" cy="-137" rx="43.5923" ry="18"/>
<text text-anchor="middle" x="133.5461" y="-133.3" font-family="Times,serif" font-size="14.00" fill="#000000">Translate</text>
</g>
<!-- Translate&#45;&gt;Cek_types -->
<g id="edge4" class="edge">
<title>Translate&#45;&gt;Cek_types</title>
<path fill="none" stroke="#000000" d="M157.9922,-152.0841C164.2296,-155.9529 170.9168,-160.1182 177.0923,-164 194.1311,-174.7103 213.0223,-186.7333 228.6365,-196.711"/>
<polygon fill="#000000" stroke="#000000" points="227.1023,-199.8844 237.4124,-202.3241 230.874,-193.9874 227.1023,-199.8844"/>
</g>
<!-- Ir -->
<g id="node8" class="node">
<title>Ir</title>
<ellipse fill="none" stroke="#000000" cx="373.5836" cy="-249" rx="27" ry="18"/>
<text text-anchor="middle" x="373.5836" y="-245.3" font-family="Times,serif" font-size="14.00" fill="#000000">Ir</text>
</g>
<!-- Translate&#45;&gt;Ir -->
<g id="edge5" class="edge">
<title>Translate&#45;&gt;Ir</title>
<path fill="none" stroke="#000000" d="M173.9291,-143.9518C211.2184,-151.5796 267.2225,-166.1686 310.5836,-191 326.4581,-200.0907 341.627,-213.842 353.1012,-225.6735"/>
<polygon fill="#000000" stroke="#000000" points="350.6812,-228.2093 360.0782,-233.1029 355.7839,-223.4174 350.6812,-228.2093"/>
</g>
<!-- Preprocess -->
<g id="node9" class="node">
<title>Preprocess</title>
<ellipse fill="none" stroke="#000000" cx="261.8379" cy="-18" rx="48.9926" ry="18"/>
<text text-anchor="middle" x="261.8379" y="-14.3" font-family="Times,serif" font-size="14.00" fill="#000000">Preprocess</text>
</g>
<!-- Translate&#45;&gt;Preprocess -->
<g id="edge6" class="edge">
<title>Translate&#45;&gt;Preprocess</title>
<path fill="none" stroke="#000000" d="M145.7773,-119.4308C160.2054,-99.6027 185.7149,-67.2229 213.0923,-45 216.2141,-42.4659 219.6071,-40.043 223.101,-37.7619"/>
<polygon fill="#000000" stroke="#000000" points="225.1789,-40.5944 231.8966,-32.4015 221.536,-34.617 225.1789,-40.5944"/>
</g>
<!-- Preprocess&#45;&gt;Stx -->
<g id="edge7" class="edge">
<title>Preprocess&#45;&gt;Stx</title>
<path fill="none" stroke="#000000" d="M291.4904,-32.3292C307.1256,-39.8848 326.3037,-49.1524 342.1905,-56.8296"/>
<polygon fill="#000000" stroke="#000000" points="341.0692,-60.1749 351.5959,-61.3746 344.1149,-53.8722 341.0692,-60.1749"/>
</g>
<!-- Parser -->
<g id="node10" class="node">
<title>Parser</title>
<ellipse fill="none" stroke="#000000" cx="261.8379" cy="-72" rx="32.4942" ry="18"/>
<text text-anchor="middle" x="261.8379" y="-68.3" font-family="Times,serif" font-size="14.00" fill="#000000">Parser</text>
</g>
<!-- Parser&#45;&gt;Stx -->
<g id="edge8" class="edge">
<title>Parser&#45;&gt;Stx</title>
<path fill="none" stroke="#000000" d="M294.4598,-72C307.4728,-72 322.5337,-72 336.0011,-72"/>
<polygon fill="#000000" stroke="#000000" points="336.3905,-75.5001 346.3904,-72 336.3904,-68.5001 336.3905,-75.5001"/>
</g>
<!-- Freevars -->
<g id="node11" class="node">
<title>Freevars</title>
<ellipse fill="none" stroke="#000000" cx="261.8379" cy="-353" rx="40.8928" ry="18"/>
<text text-anchor="middle" x="261.8379" y="-349.3" font-family="Times,serif" font-size="14.00" fill="#000000">Freevars</text>
</g>
<!-- Freevars&#45;&gt;Ir -->
<g id="edge9" class="edge">
<title>Freevars&#45;&gt;Ir</title>
<path fill="none" stroke="#000000" d="M290.088,-339.7228C297.1273,-335.7917 304.4187,-331.1448 310.5836,-326 328.598,-310.9663 345.2336,-290.206 356.8811,-274.0298"/>
<polygon fill="#000000" stroke="#000000" points="359.9324,-275.775 362.8159,-265.5801 354.2041,-271.7517 359.9324,-275.775"/>
</g>
<!-- Compile -->
<g id="node13" class="node">
<title>Compile</title>
<ellipse fill="none" stroke="#000000" cx="133.5461" cy="-353" rx="41.6928" ry="18"/>
<text text-anchor="middle" x="133.5461" y="-349.3" font-family="Times,serif" font-size="14.00" fill="#000000">Compile</text>
</g>
<!-- Compile&#45;&gt;Freevars -->
<g id="edge12" class="edge">
<title>Compile&#45;&gt;Freevars</title>
<path fill="none" stroke="#000000" d="M175.1988,-353C186.5165,-353 198.9038,-353 210.6814,-353"/>
<polygon fill="#000000" stroke="#000000" points="210.8322,-356.5001 220.8322,-353 210.8322,-349.5001 210.8322,-356.5001"/>
</g>
<!-- Compile&#45;&gt;Vm_types -->
<g id="edge13" class="edge">
<title>Compile&#45;&gt;Vm_types</title>
<path fill="none" stroke="#000000" d="M163.6249,-340.3394C180.527,-333.225 201.8745,-324.2395 220.3464,-316.4644"/>
<polygon fill="#000000" stroke="#000000" points="221.8461,-319.6307 229.7051,-312.5252 219.1304,-313.1789 221.8461,-319.6307"/>
</g>
<!-- Cek -->
<g id="node14" class="node">
<title>Cek</title>
<ellipse fill="none" stroke="#000000" cx="133.5461" cy="-191" rx="27" ry="18"/>
<text text-anchor="middle" x="133.5461" y="-187.3" font-family="Times,serif" font-size="14.00" fill="#000000">Cek</text>
</g>
<!-- Cek&#45;&gt;Cek_types -->
<g id="edge14" class="edge">
<title>Cek&#45;&gt;Cek_types</title>
<path fill="none" stroke="#000000" d="M159.5079,-196.4639C173.9523,-199.5038 192.4581,-203.3985 209.751,-207.0379"/>
<polygon fill="#000000" stroke="#000000" points="209.2462,-210.5083 219.7527,-209.1428 210.6879,-203.6583 209.2462,-210.5083"/>
</g>
</g>
</svg>
